<svg width="24" height="24" viewBox="0 0 24 24" fill="none" xmlns="http://www.w3.org/2000/svg">
<path fill-rule="evenodd" clip-rule="evenodd" d="M20.7269 3.12591C20.4369 2.87693 20.0655 2.74312 19.6833 2.74988L19.67 2.75011L17.75 2.75V12.25H19.6833C20.0655 12.2568 20.4369 12.1231 20.7269 11.8741C21.0054 11.635 21.1904 11.3057 21.25 10.9445V4.05545C21.1904 3.69426 21.0054 3.36498 20.7269 3.12591ZM16.25 12.8408L12.5343 21.2013C12.1112 21.1118 11.7194 20.9014 11.409 20.591C10.9871 20.169 10.75 19.5967 10.75 19V15C10.75 14.5858 10.4142 14.25 10 14.25H4.34L4.33151 14.25C4.15031 14.2521 3.97084 14.2147 3.80552 14.1405C3.64021 14.0663 3.493 13.9571 3.3741 13.8203C3.25519 13.6836 3.16744 13.5227 3.11692 13.3486C3.06645 13.1748 3.05434 12.992 3.08143 12.8131C3.0814 12.8132 3.08146 12.8129 3.08143 12.8131L4.46152 3.81245C4.50672 3.51438 4.65813 3.24269 4.88783 3.04744C5.11754 2.85219 5.41007 2.74654 5.71152 2.74995L16.25 2.75V12.8408ZM19.6638 1.25C20.411 1.23851 21.1367 1.50087 21.7039 1.98772C22.2729 2.4761 22.6427 3.1564 22.7432 3.89946C22.7477 3.93278 22.75 3.96637 22.75 4V11C22.75 11.0336 22.7477 11.0672 22.7432 11.1005C22.6427 11.8436 22.2729 12.5239 21.7039 13.0123C21.1367 13.4991 20.411 13.7615 19.6638 13.75H17.4874L13.6854 22.3046C13.565 22.5754 13.2964 22.75 13 22.75C12.0054 22.75 11.0516 22.3549 10.3483 21.6516C9.64509 20.9484 9.25 19.9946 9.25 19V15.75H4.34395C3.94687 15.7538 3.55365 15.6716 3.19133 15.509C2.82763 15.3458 2.50377 15.1054 2.24219 14.8046C1.9806 14.5038 1.78755 14.1497 1.6764 13.7669C1.56525 13.384 1.53867 12.9816 1.59849 12.5874L2.97848 3.58754C2.97844 3.58776 2.97851 3.58732 2.97848 3.58754C3.07805 2.93206 3.41118 2.33394 3.91636 1.90453C4.42055 1.47597 5.06232 1.24362 5.7239 1.25H19.6638Z" fill="black"/>
</svg>
