<svg width="16" height="16" viewBox="0 0 16 16" fill="none" xmlns="http://www.w3.org/2000/svg">
<path fill-rule="evenodd" clip-rule="evenodd" d="M6.87635 1.1303C6.9566 0.949741 7.13566 0.833374 7.33325 0.833374C7.99629 0.833374 8.63218 1.09677 9.10102 1.56561C9.56986 2.03445 9.83325 2.67033 9.83325 3.33337V5.50004H13.104C13.3687 5.49749 13.6308 5.55229 13.8724 5.66069C14.1148 5.76951 14.3307 5.92975 14.5051 6.13029C14.6795 6.33084 14.8082 6.56691 14.8823 6.82214C14.9564 7.07736 14.9741 7.34565 14.9343 7.60841L14.0143 13.6083C14.0143 13.6084 14.0143 13.6083 14.0143 13.6083C13.948 14.0455 13.7259 14.444 13.389 14.7303C13.0529 15.0161 12.625 15.171 12.184 15.1667H2.66659C2.18035 15.1667 1.71404 14.9736 1.37022 14.6297C1.02641 14.2859 0.833252 13.8196 0.833252 13.3334V8.66671C0.833252 8.18048 1.02641 7.71416 1.37022 7.37035C1.71404 7.02653 2.18035 6.83337 2.66659 6.83337H4.34165L6.87635 1.1303ZM5.16659 7.43948L7.64375 1.86586C7.92577 1.92553 8.18696 2.06577 8.39391 2.27271C8.67522 2.55402 8.83325 2.93555 8.83325 3.33337V6.00004C8.83325 6.27618 9.05711 6.50004 9.33325 6.50004H13.1066L13.1122 6.50001C13.233 6.49864 13.3527 6.52355 13.4629 6.57302C13.5731 6.62248 13.6713 6.69531 13.7505 6.78647C13.8298 6.87763 13.8883 6.98493 13.922 7.10095C13.9556 7.21688 13.9637 7.33875 13.9456 7.45811C13.9456 7.45819 13.9456 7.45803 13.9456 7.45811L13.0256 13.4584C12.9954 13.6571 12.8945 13.8382 12.7414 13.9684C12.5882 14.0986 12.3932 14.169 12.1922 14.1667L5.16659 14.1667V7.43948ZM4.16659 14.1667V7.83337H2.66659C2.44557 7.83337 2.23361 7.92117 2.07733 8.07745C1.92105 8.23373 1.83325 8.44569 1.83325 8.66671V13.3334C1.83325 13.5544 1.92105 13.7663 2.07733 13.9226C2.23361 14.0789 2.44557 14.1667 2.66659 14.1667H4.16659Z" fill="#1877F2"/>
</svg>
